<svg width="116" height="116" viewBox="0 0 116 116" fill="none" xmlns="http://www.w3.org/2000/svg">
<path d="M57.5556 6C47.3589 6 37.3911 9.02368 28.9128 14.6887C20.4346 20.3537 13.8266 28.4056 9.92446 37.8261C6.02234 47.2466 5.00137 57.6127 6.99065 67.6135C8.97993 77.6143 13.8901 86.8007 21.1003 94.0108C28.3105 101.221 37.4968 106.131 47.4976 108.12C57.4984 110.11 67.8645 109.089 77.285 105.187C86.7056 101.285 94.7575 94.6766 100.422 86.1983C106.087 77.72 109.111 67.7523 109.111 57.5556C109.111 43.8822 103.679 30.7688 94.0109 21.1003C84.3423 11.4317 71.229 6 57.5556 6ZM57.5556 102.667C48.6334 102.667 39.9117 100.021 32.4932 95.0641C25.0747 90.1072 19.2927 83.0618 15.8783 74.8188C12.464 66.5759 11.5706 57.5055 13.3113 48.7548C15.0519 40.0041 19.3483 31.9661 25.6572 25.6572C31.9661 19.3483 40.0041 15.0519 48.7548 13.3112C57.5055 11.5706 66.5759 12.464 74.8189 15.8783C83.0618 19.2927 90.1072 25.0747 95.0641 32.4932C100.021 39.9116 102.667 48.6334 102.667 57.5556C102.667 69.5198 97.9139 80.994 89.454 89.4539C80.994 97.9139 69.5198 102.667 57.5556 102.667Z" fill="#4D4D4D"/>
<path fill-rule="evenodd" clip-rule="evenodd" d="M57.0471 87.0259C58.5038 87.0259 59.9008 86.4472 60.9308 85.4172C61.9609 84.3871 62.5395 82.9901 62.5395 81.5334C62.5395 80.0768 61.9609 78.6797 60.9308 77.6497C59.9008 76.6197 58.5038 76.041 57.0471 76.041C55.5904 76.041 54.1934 76.6197 53.1634 77.6497C52.1334 78.6797 51.5547 80.0768 51.5547 81.5334C51.5547 82.9901 52.1334 84.3871 53.1634 85.4172C54.1934 86.4472 55.5904 87.0259 57.0471 87.0259Z" fill="#4D4D4D"/>
<path d="M57.0469 32.1016V67.2531" stroke="#4D4D4D" stroke-width="8.78788" stroke-linecap="round" stroke-linejoin="round"/>
</svg>
