<svg width="52" height="53" viewBox="0 0 52 53" fill="none" xmlns="http://www.w3.org/2000/svg">
<g clip-path="url(#clip0_1559_71877)">
<path d="M13.0039 0.5H39.0039C40.7278 0.5 42.3811 1.18482 43.6001 2.40381C44.8191 3.62279 45.5039 5.27609 45.5039 7V33.9523L36.6314 25.0798C36.2974 24.7467 35.8949 24.4903 35.4519 24.3284C35.0089 24.1665 34.5359 24.103 34.0658 24.1423C33.5958 24.1815 33.1399 24.3227 32.7299 24.5558C32.3199 24.789 31.9655 25.1086 31.6914 25.4925L25.5522 34.0855L19.8029 30.634C19.1814 30.2606 18.4529 30.1058 17.7332 30.1941C17.0136 30.2824 16.3442 30.6089 15.8314 31.1215L6.50391 40.449V7C6.50391 5.27609 7.18873 3.62279 8.40771 2.40381C9.6267 1.18482 11.28 0.5 13.0039 0.5V0.5ZM26.0104 18.375C26.0104 17.7348 25.8843 17.1009 25.6393 16.5094C25.3943 15.918 25.0352 15.3805 24.5826 14.9279C24.1299 14.4752 23.5925 14.1161 23.001 13.8711C22.4095 13.6261 21.7756 13.5 21.1354 13.5C20.4952 13.5 19.8613 13.6261 19.2698 13.8711C18.6784 14.1161 18.1409 14.4752 17.6883 14.9279C17.2356 15.3805 16.8765 15.918 16.6315 16.5094C16.3865 17.1009 16.2604 17.7348 16.2604 18.375C16.2604 19.6679 16.774 20.9079 17.6883 21.8221C18.6025 22.7364 19.8425 23.25 21.1354 23.25C22.4283 23.25 23.6683 22.7364 24.5826 21.8221C25.4968 20.9079 26.0104 19.6679 26.0104 18.375Z" fill="#B3B3B3"/>
<path d="M34.3369 27.377L45.5039 38.5505V45.9995C45.5039 47.7234 44.8191 49.3767 43.6001 50.5956C42.3811 51.8146 40.7278 52.4995 39.0039 52.4995H13.0039C11.28 52.4995 9.6267 51.8146 8.40771 50.5956C7.18873 49.3767 6.50391 47.7234 6.50391 45.9995V45.0472L18.1324 33.422L26.4524 38.414L34.3369 27.3802V27.377Z" fill="#B3B3B3"/>
</g>
<defs>
<clipPath id="clip0_1559_71877">
<rect width="52" height="52" fill="white" transform="translate(0 0.5)"/>
</clipPath>
</defs>
</svg>
