<svg width="16" height="15" viewBox="0 0 16 15" fill="none" xmlns="http://www.w3.org/2000/svg">
<path d="M15.4252 13.2314L8.22916 0.77677C8.12191 0.59168 7.93682 0.5 7.75 0.5C7.56318 0.5 7.37636 0.59168 7.27084 0.77677L0.0748203 13.2314C-0.137947 13.6016 0.128444 14.0617 0.553978 14.0617H14.946C15.3716 14.0617 15.6379 13.6016 15.4252 13.2314ZM7.19646 5.62025C7.19646 5.54413 7.25873 5.48186 7.33484 5.48186H8.16515C8.24127 5.48186 8.30354 5.54413 8.30354 5.62025V8.8031C8.30354 8.87921 8.24127 8.94149 8.16515 8.94149H7.33484C7.25873 8.94149 7.19646 8.87921 7.19646 8.8031V5.62025ZM7.75 11.7092C7.53272 11.7048 7.32584 11.6153 7.17375 11.4601C7.02165 11.3049 6.93647 11.0962 6.93647 10.8789C6.93647 10.6616 7.02165 10.4529 7.17375 10.2977C7.32584 10.1424 7.53272 10.053 7.75 10.0486C7.96728 10.053 8.17416 10.1424 8.32625 10.2977C8.47835 10.4529 8.56353 10.6616 8.56353 10.8789C8.56353 11.0962 8.47835 11.3049 8.32625 11.4601C8.17416 11.6153 7.96728 11.7048 7.75 11.7092Z" fill="#1A1A1A"/>
</svg>
