<svg width="24" height="16" viewBox="0 0 24 16" fill="none" xmlns="http://www.w3.org/2000/svg">
<path d="M23.1853 7.69509C23.1524 7.62102 22.3585 5.85984 20.5929 4.09415C18.2412 1.74224 15.2697 0.499023 12 0.499023C8.7303 0.499023 5.7588 1.74215 3.40717 4.09405C1.64149 5.85984 0.847517 7.62112 0.81461 7.69518C0.772011 7.79108 0.75 7.89484 0.75 7.99977C0.75 8.10471 0.772011 8.20847 0.81461 8.30437C0.84761 8.37843 1.64149 10.1392 3.40727 11.9047C5.75889 14.2561 8.7302 15.499 12 15.499C15.2698 15.499 18.2411 14.2561 20.5928 11.9047C22.3585 10.1392 23.1524 8.37852 23.1854 8.30437C23.228 8.20847 23.25 8.10471 23.25 7.99977C23.25 7.89484 23.228 7.79108 23.1854 7.69518L23.1853 7.69509ZM12 4.62477C12.6675 4.62477 13.3201 4.82271 13.8751 5.19356C14.4301 5.56441 14.8627 6.09152 15.1181 6.70822C15.3736 7.32492 15.4404 8.00352 15.3102 8.6582C15.1799 9.31289 14.8585 9.91426 14.3865 10.3863C13.9145 10.8583 13.3131 11.1797 12.6584 11.3099C12.0038 11.4401 11.3252 11.3733 10.7085 11.1179C10.0918 10.8624 9.56466 10.4298 9.19381 9.87482C8.82296 9.31981 8.62502 8.66728 8.62502 7.99977C8.62601 7.10497 8.98191 6.2471 9.61463 5.61438C10.2473 4.98166 11.1052 4.62577 12 4.62477Z" fill="#B3B3B3"/>
</svg>
