<svg width="20" height="20" viewBox="0 0 20 20" fill="none" xmlns="http://www.w3.org/2000/svg">
<path d="M16.2487 6.39124C16.2487 6.55775 16.1875 6.71847 16.0769 6.8429C15.9662 6.96733 15.8138 7.04683 15.6484 7.06631L15.5689 7.07107H14.9944L14.1576 15.5825C14.112 16.0443 13.8963 16.4727 13.5524 16.7843C13.2085 17.0959 12.761 17.2685 12.2969 17.2684H7.28385C6.81977 17.2685 6.37226 17.0959 6.02835 16.7843C5.68445 16.4727 5.46874 16.0443 5.42317 15.5825L4.58631 7.07107H4.01186C3.83156 7.07107 3.65864 6.99944 3.53115 6.87195C3.40366 6.74446 3.33203 6.57154 3.33203 6.39124C3.33203 6.21094 3.40366 6.03803 3.53115 5.91053C3.65864 5.78304 3.83156 5.71142 4.01186 5.71142H7.41098C7.41098 5.39895 7.47252 5.08955 7.5921 4.80087C7.71167 4.51219 7.88694 4.24988 8.10788 4.02894C8.32883 3.80799 8.59113 3.63273 8.87981 3.51315C9.16849 3.39358 9.4779 3.33203 9.79036 3.33203C10.1028 3.33203 10.4122 3.39358 10.7009 3.51315C10.9896 3.63273 11.2519 3.80799 11.4728 4.02894C11.6938 4.24988 11.8691 4.51219 11.9886 4.80087C12.1082 5.08955 12.1698 5.39895 12.1698 5.71142H15.5689C15.7492 5.71142 15.9221 5.78304 16.0496 5.91053C16.1771 6.03803 16.2487 6.21094 16.2487 6.39124ZM11.32 8.60067C11.1968 8.60068 11.0777 8.6453 10.9849 8.72628C10.892 8.80726 10.8316 8.91913 10.8149 9.0412L10.8101 9.11054V13.8693L10.8149 13.9387C10.8317 14.0607 10.8921 14.1725 10.9849 14.2535C11.0778 14.3344 11.1968 14.379 11.32 14.379C11.4432 14.379 11.5622 14.3344 11.655 14.2535C11.7479 14.1725 11.8083 14.0607 11.8251 13.9387L11.8298 13.8693V9.11054L11.8251 9.0412C11.8083 8.91913 11.7479 8.80726 11.6551 8.72628C11.5622 8.6453 11.4432 8.60068 11.32 8.60067ZM8.26076 8.60067C8.13755 8.60068 8.01851 8.6453 7.92565 8.72628C7.8328 8.80726 7.77241 8.91913 7.75565 9.0412L7.75089 9.11054V13.8693L7.75565 13.9387C7.77244 14.0607 7.83285 14.1725 7.9257 14.2535C8.01855 14.3344 8.13757 14.379 8.26076 14.379C8.38395 14.379 8.50297 14.3344 8.59582 14.2535C8.68867 14.1725 8.74908 14.0607 8.76587 13.9387L8.77063 13.8693V9.11054L8.76587 9.0412C8.74911 8.91913 8.68872 8.80726 8.59587 8.72628C8.50301 8.6453 8.38397 8.60068 8.26076 8.60067ZM9.79036 4.69168C9.51991 4.69168 9.26054 4.79912 9.0693 4.99035C8.87806 5.18159 8.77063 5.44097 8.77063 5.71142H10.8101C10.8101 5.44097 10.7027 5.18159 10.5114 4.99035C10.3202 4.79912 10.0608 4.69168 9.79036 4.69168Z" fill="#333333"/>
</svg>
