<svg width="24" height="22" viewBox="0 0 24 22" fill="none" xmlns="http://www.w3.org/2000/svg">
<path d="M12 5.62945L11.5537 4.74576C10.605 2.86742 9.30225 1.81202 7.97219 1.36422C6.63663 0.914567 5.23357 1.06341 4.05785 1.66541C2.88222 2.26736 1.94156 3.31847 1.52717 4.6672C1.11446 6.0105 1.21183 7.69016 2.18758 9.56968L12 5.62945ZM12 5.62945L12.4463 4.74576M12 5.62945L12.4463 4.74576M12.4463 4.74576C13.3949 2.86742 14.6977 1.81202 16.0278 1.36422C17.3633 0.914567 18.7664 1.06341 19.9421 1.66541C21.1177 2.26736 22.0584 3.31847 22.4728 4.6672C22.8855 6.0105 22.7881 7.69016 21.8124 9.56968C20.9085 11.3078 19.2267 13.3916 17.392 15.3858M12.4463 4.74576L17.392 15.3858M17.392 15.3858C15.5658 17.3708 13.6179 19.2356 12.2075 20.5345M17.392 15.3858L12.2075 20.5345M12.2075 20.5345C12.1526 20.5834 12.0816 20.6105 12.008 20.6105C11.9342 20.6105 11.863 20.5833 11.808 20.5341C10.3901 19.2357 8.43807 17.3708 6.60976 15.3856C4.77321 13.3915 3.09146 11.3079 2.18763 9.56976L12.2075 20.5345Z" fill="white" stroke="#C4C4C4"/>
</svg>
