<svg width="20" height="20" viewBox="0 0 20 20" fill="none" xmlns="http://www.w3.org/2000/svg">
<path d="M5.83961 7.77031L4.87744 8.73249C5.82464 5.62874 9.1086 3.88056 12.2123 4.82776C13.3952 5.18875 14.4339 5.91375 15.1807 6.89951L16.0322 6.25432C13.7195 3.19681 9.36601 2.59301 6.30847 4.90577C5.04117 5.86434 4.14114 7.22869 3.75864 8.77098L2.75584 7.77031L2 8.52562L4.29853 10.8241L6.59705 8.52562L5.83961 7.77031Z" fill="#333333"/>
<path d="M16.6879 10.0645L14.3894 12.363L15.1452 13.1188L16.1186 12.146C15.1797 15.2547 11.8985 17.0137 8.7898 16.0748C7.5533 15.7014 6.4742 14.9312 5.71912 13.8832L4.85156 14.5076C5.92375 16.0065 7.55056 17.0148 9.37004 17.308C9.74295 17.3686 10.1201 17.3991 10.4979 17.3994C13.6891 17.3979 16.467 15.2184 17.2278 12.1192L18.2285 13.1188L18.9864 12.363L16.6879 10.0645ZM16.6612 11.6045L16.6884 11.5772L16.728 11.6173L16.6612 11.6045Z" fill="#333333"/>
</svg>
