<svg width="10" height="6" viewBox="0 0 10 6" fill="none" xmlns="http://www.w3.org/2000/svg">
<path d="M8.70865 1.05451C8.77387 0.990173 8.86179 0.954102 8.9534 0.954102C9.04501 0.954102 9.13294 0.990173 9.19815 1.05451C9.23028 1.08615 9.25579 1.12386 9.2732 1.16545C9.29062 1.20703 9.29958 1.25167 9.29958 1.29676C9.29958 1.34185 9.29062 1.38648 9.2732 1.42807C9.25579 1.46966 9.23028 1.50737 9.19815 1.53901L5.24415 5.45401C5.17894 5.51835 5.09101 5.55442 4.9994 5.55442C4.90779 5.55442 4.81987 5.51835 4.75465 5.45401L0.80065 1.53901C0.768525 1.50737 0.743014 1.46966 0.7256 1.42807C0.708187 1.38648 0.699219 1.34185 0.699219 1.29676C0.699219 1.25167 0.708187 1.20703 0.7256 1.16545C0.743014 1.12386 0.768525 1.08615 0.80065 1.05451C0.865866 0.990173 0.953791 0.954102 1.0454 0.954102C1.13701 0.954102 1.22493 0.990173 1.29015 1.05451L4.99965 4.62501L8.70865 1.05451Z" fill="#333333"/>
</svg>
