<svg width="117" height="116" viewBox="0 0 117 116" fill="none" xmlns="http://www.w3.org/2000/svg">
<path d="M58.5009 6.44458C48.3042 6.44458 38.3364 9.46826 29.8582 15.1333C21.3799 20.7983 14.7719 28.8501 10.8698 38.2707C6.96765 47.6912 5.94668 58.0573 7.93596 68.0581C9.92524 78.0589 14.8354 87.2452 22.0456 94.4554C29.2558 101.666 38.4421 106.576 48.4429 108.565C58.4437 110.554 68.8098 109.533 78.2304 105.631C87.6509 101.729 95.7028 95.1211 101.368 86.6429C107.033 78.1646 110.056 68.1969 110.056 58.0001C110.056 44.3268 104.625 31.2134 94.9562 21.5449C85.2876 11.8763 72.1743 6.44458 58.5009 6.44458ZM58.5009 103.111C49.5788 103.111 40.857 100.466 33.4385 95.5087C26.02 90.5518 20.238 83.5064 16.8237 75.2634C13.4093 67.0204 12.516 57.9501 14.2566 49.1994C15.9972 40.4487 20.2936 32.4107 26.6025 26.1018C32.9114 19.7929 40.9495 15.4964 49.7002 13.7558C58.4509 12.0152 67.5212 12.9086 75.7642 16.3229C84.0072 19.7373 91.0526 25.5193 96.0094 32.9377C100.966 40.3562 103.612 49.078 103.612 58.0001C103.612 69.9643 98.8592 81.4385 90.3993 89.8985C81.9393 98.3585 70.4651 103.111 58.5009 103.111Z" fill="#4D4D4D"/>
<path d="M90.7221 38.9885C90.1184 38.3884 89.3017 38.0515 88.4505 38.0515C87.5992 38.0515 86.7825 38.3884 86.1788 38.9885L50.4121 74.5941L31.0788 55.2607C30.4891 54.6241 29.6707 54.2477 28.8036 54.2145C27.9364 54.1813 27.0916 54.4938 26.4549 55.0835C25.8182 55.6732 25.4419 56.4916 25.4087 57.3588C25.3754 58.2259 25.688 59.0707 26.2777 59.7074L50.4121 83.7774L90.7221 43.5641C91.0241 43.2645 91.2639 42.9081 91.4274 42.5155C91.591 42.1228 91.6753 41.7017 91.6753 41.2763C91.6753 40.8509 91.591 40.4298 91.4274 40.0371C91.2639 39.6444 91.0241 39.2881 90.7221 38.9885Z" fill="#4D4D4D"/>
</svg>
