<svg width="15" height="16" viewBox="0 0 15 16" fill="none" xmlns="http://www.w3.org/2000/svg">
<path d="M13.064 5.08128C13.1618 4.98477 13.2937 4.93066 13.4311 4.93066C13.5685 4.93066 13.7004 4.98477 13.7982 5.08128C13.8464 5.12873 13.8847 5.1853 13.9108 5.24768C13.9369 5.31006 13.9503 5.37702 13.9503 5.44465C13.9503 5.51228 13.9369 5.57924 13.9108 5.64162C13.8847 5.70401 13.8464 5.76057 13.7982 5.80803L7.8672 11.6805C7.76938 11.777 7.63749 11.8311 7.50008 11.8311C7.36266 11.8311 7.23077 11.777 7.13295 11.6805L1.20195 5.80803C1.15376 5.76057 1.1155 5.70401 1.08938 5.64162C1.06326 5.57924 1.0498 5.51228 1.0498 5.44465C1.0498 5.37702 1.06326 5.31006 1.08938 5.24768C1.1155 5.1853 1.15376 5.12873 1.20195 5.08128C1.29977 4.98477 1.43166 4.93066 1.56908 4.93066C1.70649 4.93066 1.83838 4.98477 1.9362 5.08128L7.50045 10.437L13.064 5.08128Z" fill="#16502C"/>
</svg>
