<svg width="15" height="16" viewBox="0 0 15 16" fill="none" xmlns="http://www.w3.org/2000/svg">
<path d="M13.0635 5.08128C13.1613 4.98477 13.2932 4.93066 13.4306 4.93066C13.568 4.93066 13.6999 4.98477 13.7977 5.08128C13.8459 5.12873 13.8842 5.1853 13.9103 5.24768C13.9364 5.31006 13.9499 5.37702 13.9499 5.44465C13.9499 5.51228 13.9364 5.57924 13.9103 5.64162C13.8842 5.70401 13.8459 5.76057 13.7977 5.80803L7.86671 11.6805C7.76889 11.777 7.637 11.8311 7.49959 11.8311C7.36217 11.8311 7.23029 11.777 7.13246 11.6805L1.20146 5.80803C1.15328 5.76057 1.11501 5.70401 1.08889 5.64162C1.06277 5.57924 1.04932 5.51228 1.04932 5.44465C1.04932 5.37702 1.06277 5.31006 1.08889 5.24768C1.11501 5.1853 1.15328 5.12873 1.20146 5.08128C1.29929 4.98477 1.43117 4.93066 1.56859 4.93066C1.706 4.93066 1.83789 4.98477 1.93571 5.08128L7.49996 10.437L13.0635 5.08128Z" fill="#333333"/>
</svg>
