<svg width="116" height="116" viewBox="0 0 116 116" fill="none" xmlns="http://www.w3.org/2000/svg">
<path d="M97.875 21.75H79.7518V18.125C79.7486 15.2418 78.6018 12.4775 76.563 10.4388C74.5243 8.40003 71.76 7.25324 68.8768 7.25H47.1268C44.2436 7.25324 41.4794 8.40003 39.4406 10.4388C37.4018 12.4775 36.255 15.2418 36.2518 18.125V21.75H18.125C17.1636 21.75 16.2416 22.1319 15.5617 22.8117C14.8819 23.4916 14.5 24.4136 14.5 25.375C14.5 26.3364 14.8819 27.2584 15.5617 27.9383C16.2416 28.6181 17.1636 29 18.125 29H21.75V94.25C21.7522 96.1722 22.5167 98.015 23.8759 99.3741C25.235 100.733 27.0778 101.498 29 101.5H87C88.9222 101.498 90.765 100.733 92.1241 99.3741C93.4833 98.015 94.2478 96.1722 94.25 94.25V29H97.875C98.8364 29 99.7584 28.6181 100.438 27.9383C101.118 27.2584 101.5 26.3364 101.5 25.375C101.5 24.4136 101.118 23.4916 100.438 22.8117C99.7584 22.1319 98.8364 21.75 97.875 21.75ZM43.5018 18.125C43.503 17.164 43.8853 16.2426 44.5649 15.5631C45.2444 14.8835 46.1658 14.5012 47.1268 14.5H68.8768C69.8379 14.5012 70.7592 14.8835 71.4387 15.5631C72.1183 16.2426 72.5006 17.164 72.5018 18.125V21.75H43.5018V18.125ZM87 94.25H29V29H87V94.25ZM50.7518 47.125V76.125C50.7518 77.0864 50.3699 78.0084 49.6901 78.6883C49.0103 79.3681 48.0882 79.75 47.1268 79.75C46.1654 79.75 45.2434 79.3681 44.5636 78.6883C43.8837 78.0084 43.5018 77.0864 43.5018 76.125V47.125C43.5018 46.1636 43.8837 45.2416 44.5636 44.5617C45.2434 43.8819 46.1654 43.5 47.1268 43.5C48.0882 43.5 49.0103 43.8819 49.6901 44.5617C50.3699 45.2416 50.7518 46.1636 50.7518 47.125ZM72.5018 47.125V76.125C72.5018 77.0864 72.1199 78.0084 71.4401 78.6883C70.7603 79.3681 69.8382 79.75 68.8768 79.75C67.9154 79.75 66.9934 79.3681 66.3135 78.6883C65.6337 78.0084 65.2518 77.0864 65.2518 76.125V47.125C65.2518 46.1636 65.6337 45.2416 66.3135 44.5617C66.9934 43.8819 67.9154 43.5 68.8768 43.5C69.8382 43.5 70.7603 43.8819 71.4401 44.5617C72.1199 45.2416 72.5018 46.1636 72.5018 47.125Z" fill="#4D4D4D"/>
</svg>
