<svg width="20" height="20" viewBox="0 0 20 20" fill="none" xmlns="http://www.w3.org/2000/svg">
<path d="M9.2793 3.78166L9.27933 3.78161C9.38295 3.59983 9.56637 3.50977 9.75 3.50977C9.93359 3.50977 10.1153 3.5998 10.2207 3.78167L17.4167 16.2363C17.6257 16.6 17.364 17.052 16.946 17.052H2.55398C2.13597 17.052 1.87425 16.6 2.08329 16.2363L9.2793 3.78166ZM9.7498 14.719L9.7502 14.719C9.97003 14.7145 10.1793 14.624 10.3332 14.4669C10.4871 14.3099 10.5733 14.0988 10.5733 13.8789C10.5733 13.659 10.4871 13.4479 10.3332 13.2908C10.1793 13.1338 9.97003 13.0433 9.7502 13.0388L9.7498 13.0388C9.52997 13.0433 9.32065 13.1338 9.16677 13.2908C9.01289 13.4479 8.9267 13.659 8.9267 13.8789C8.9267 14.0988 9.01289 14.3099 9.16677 14.4669C9.32065 14.624 9.52997 14.7145 9.7498 14.719ZM9.33484 8.4721C9.25334 8.4721 9.18669 8.53874 9.18669 8.62025V11.8031C9.18669 11.8846 9.25334 11.9513 9.33484 11.9513H10.1652C10.2467 11.9513 10.3133 11.8846 10.3133 11.8031V8.62025C10.3133 8.53874 10.2467 8.4721 10.1652 8.4721H9.33484Z" fill="#F63C14" stroke="#808080" stroke-width="0.0195312"/>
</svg>
