<svg width="119" height="28" viewBox="0 0 119 28" fill="none" xmlns="http://www.w3.org/2000/svg">
<path d="M28.6463 7.93271V0.880859H10.8789V26.3853H24.7375" stroke="#B1A99A" stroke-width="1.32222"/>
<path fill-rule="evenodd" clip-rule="evenodd" d="M12.3398 22.4994C13.2245 23.0145 14.2323 23.2721 15.3633 23.2721C16.5786 23.2721 17.6452 22.9747 18.5631 22.38C19.4939 21.7853 20.2115 20.9708 20.7157 19.9366C21.2199 18.9023 21.472 17.7517 21.472 16.4847C21.472 15.2177 21.2199 14.0671 20.7157 13.0328C20.2115 11.9985 19.4939 11.184 18.5631 10.5893C17.6452 9.99462 16.5786 9.69727 15.3633 9.69727C14.2323 9.69727 13.2245 9.95481 12.3398 10.4699V12.2526C12.3708 12.2015 12.4026 12.1513 12.435 12.1019C13.1461 11.0289 14.1222 10.4924 15.3633 10.4924C16.6045 10.4924 17.5741 11.0289 18.2722 12.1019C18.9833 13.1621 19.3388 14.623 19.3388 16.4847C19.3388 18.3464 18.9833 19.8137 18.2722 20.8868C17.5741 21.9469 16.6045 22.477 15.3633 22.477C14.1222 22.477 13.1461 21.9469 12.435 20.8868C12.4026 20.8369 12.3708 20.7861 12.3398 20.7344V22.4994ZM27.7319 23.2139C27.0079 23.2139 26.3033 23.1169 25.6181 22.923C24.9458 22.7291 24.3899 22.4576 23.9503 22.1085C23.5237 21.7465 23.3103 21.3328 23.3103 20.8674V18.4768L23.7176 18.7342C23.9244 20.0271 24.3446 20.9644 24.9781 21.5461C25.6116 22.1279 26.4843 22.4188 27.5961 22.4188C28.3072 22.4188 28.9019 22.2507 29.3802 21.9146C29.8586 21.5655 30.0978 21.0807 30.0978 20.4602C30.0978 19.9172 29.9297 19.4517 29.5935 19.0639C29.2703 18.6631 28.7403 18.2494 28.0034 17.8228L25.6181 16.4071C24.7777 15.9158 24.183 15.4116 23.8339 14.8945C23.4849 14.3773 23.3103 13.7568 23.3103 13.0328C23.3103 12.0373 23.6659 11.2422 24.3769 10.6475C25.1009 10.0399 26.0512 9.73605 27.2276 9.73605C27.9129 9.73605 28.5787 9.83301 29.2251 10.0269C29.8844 10.2079 30.421 10.4794 30.8347 10.8414C31.2613 11.1905 31.4746 11.5977 31.4746 12.0632V14.5101L31.0674 14.1963C30.8476 12.9035 30.4339 11.9727 29.8263 11.4038C29.2186 10.822 28.3718 10.5311 27.2858 10.5311C26.6653 10.5311 26.1352 10.7121 25.6956 11.0741C25.2561 11.4361 25.0363 11.9016 25.0363 12.4704C25.0363 12.9875 25.1979 13.4206 25.5211 13.7697C25.8443 14.1058 26.3873 14.5066 27.1501 14.972L29.5354 16.3877C30.4145 16.9048 31.0415 17.4026 31.4165 17.8809C31.7914 18.3464 31.9788 18.9281 31.9788 19.6263C31.9788 20.7252 31.5974 21.5979 30.8347 22.2443C30.0848 22.8907 29.0506 23.2139 27.7319 23.2139ZM35.9745 10.8802H37.6228V22.8842H39.5621V10.8802H43.8479V10.0851H34.8109C33.712 10.0851 33.1625 10.6023 33.1625 11.6365V13.6286L33.5892 13.1491L33.6738 12.9239C34.4051 10.9769 34.4413 10.8802 35.9745 10.8802ZM46.0403 12.4704C46.0403 11.8111 45.9498 11.3262 45.7688 11.016C45.5878 10.6928 45.2258 10.5311 44.6828 10.5311H44.3531L44.2144 10.0851H52.6919C53.7909 10.0851 54.3403 10.6023 54.3403 11.6365V13.4932L53.8943 13.1491C53.8943 11.6365 53.0863 10.8802 51.4702 10.8802H47.9989V15.8835H53.1768V16.6786H47.9989V22.0891H51.3732C52.2136 22.0891 52.8794 21.9275 53.3707 21.6043C53.8749 21.2682 54.2821 20.7123 54.5924 19.9366L55.1192 19.799L54.3791 21.8176C54.2498 22.1667 54.0688 22.4317 53.8361 22.6127C53.6034 22.7937 53.2802 22.8842 52.8665 22.8842H46.0403V12.4704ZM64.3619 22.4576C64.892 22.8713 65.4996 23.0782 66.1848 23.0782C66.4304 23.0782 66.6631 23.0588 66.8829 23.02C67.1156 22.9812 67.2902 22.9359 67.4065 22.8842L67.46 22.4435C66.9946 22.3917 66.5145 22.2443 66.1266 21.934C65.7517 21.6108 65.3251 21.0549 64.8467 20.2662L62.8105 16.8725C63.7155 16.6527 64.4589 16.2972 65.0406 15.8059C65.6224 15.3017 65.9133 14.5583 65.9133 13.5758C65.9133 12.2183 65.3962 11.3004 64.3619 10.822C63.3405 10.3308 62.2093 10.0851 60.9682 10.0851H55.6049L55.8485 10.5311H56.1782C56.7212 10.5311 57.0832 10.6928 57.2642 11.016C57.4452 11.3262 57.5357 11.8111 57.5357 12.4704V22.8842H59.4943V16.9889H60.6967L62.6359 20.2662C63.2565 21.3134 63.8318 22.0439 64.3619 22.4576ZM62.1705 15.9999C61.718 16.1809 61.272 16.2714 60.8324 16.2714H59.4943V10.9772C59.9856 10.8479 60.4317 10.7833 60.8324 10.7833C61.2591 10.7833 61.6986 10.8802 62.1511 11.0741C62.6166 11.2681 63.0044 11.5719 63.3147 11.9856C63.625 12.3993 63.7801 12.9164 63.7801 13.537C63.7801 14.1576 63.625 14.6747 63.3147 15.0884C63.0044 15.5021 62.623 15.8059 62.1705 15.9999ZM69.1637 12.4704C69.1637 11.8111 69.0732 11.3262 68.8922 11.016C68.7112 10.6928 68.3492 10.5311 67.8062 10.5311H67.4765L67.3291 10.0851H69.377C69.8424 10.0851 70.1979 10.1498 70.4436 10.279C70.6892 10.4083 70.8638 10.641 70.9672 10.9772C71.0706 11.3133 71.1223 11.8111 71.1223 12.4704V15.8835H76.785V10.0851H78.7242V20.4989C78.7242 21.1583 78.8147 21.6496 78.9957 21.9728C79.1767 22.2831 79.5387 22.4382 80.0817 22.4382H80.4308V22.8842H78.5303C78.0649 22.8842 77.7093 22.8196 77.4637 22.6903C77.2181 22.561 77.0435 22.3283 76.9401 21.9922C76.8367 21.656 76.785 21.1583 76.785 20.4989V16.6786H71.1223V22.8842H69.1637V12.4704ZM89.4133 20.4602C90.0597 22.1408 91.2039 22.9812 92.8458 22.9812C93.1561 22.9812 93.4276 22.9489 93.6603 22.8842V22.4576C93.1561 22.4059 92.7489 22.2378 92.4386 21.9534C92.1412 21.656 91.8439 21.1583 91.5465 20.4602L87.2607 10.0851H86.6014L81.0939 22.8842H82.0054L83.5762 19.2384H88.9285L89.4133 20.4602ZM86.2717 12.9552L88.5407 18.4433H83.8864L86.2717 12.9552ZM99.447 23.0782C97.6371 23.0782 96.3442 22.6127 95.5685 21.6819C94.8057 20.751 94.4243 19.3031 94.4243 17.3379V12.4704C94.4243 11.824 94.3338 11.3456 94.1528 11.0354C93.9848 10.7121 93.6422 10.5441 93.125 10.5311H92.776L92.5822 10.1027L94.6377 10.0851C95.1031 10.0851 95.4586 10.1498 95.7043 10.279C95.9499 10.4083 96.1244 10.641 96.2279 10.9772C96.3313 11.3133 96.383 11.8111 96.383 12.4704V17.9197C96.383 19.3418 96.648 20.4278 97.1781 21.1777C97.7082 21.9146 98.555 22.2831 99.7185 22.2831C101.141 22.2831 102.143 21.8952 102.724 21.1195C103.319 20.3438 103.616 19.0833 103.616 17.3379V10.0851H104.45V17.3379C104.45 18.6566 104.302 19.7297 104.004 20.5571C103.707 21.3845 103.19 22.0116 102.453 22.4382C101.729 22.8648 100.727 23.0782 99.447 23.0782ZM109.23 22.923C109.915 23.1169 110.619 23.2139 111.343 23.2139C112.662 23.2139 113.696 22.8907 114.446 22.2443C115.209 21.5979 115.59 20.7252 115.59 19.6263C115.59 18.9281 115.403 18.3464 115.028 17.8809C114.653 17.4026 114.026 16.9048 113.147 16.3877L110.762 14.972C109.999 14.5066 109.456 14.1058 109.133 13.7697C108.81 13.4206 108.648 12.9875 108.648 12.4704C108.648 11.9016 108.868 11.4361 109.307 11.0741C109.747 10.7121 110.277 10.5311 110.897 10.5311C111.983 10.5311 112.83 10.822 113.438 11.4038C114.046 11.9727 114.459 12.9035 114.679 14.1963L115.086 14.3983V12.0632C115.086 11.5977 114.873 11.1905 114.446 10.8414C114.033 10.4794 113.496 10.2079 112.837 10.0269C112.19 9.83301 111.524 9.73605 110.839 9.73605C109.663 9.73605 108.713 10.0399 107.989 10.6475C107.277 11.2422 106.922 12.0373 106.922 13.0328C106.922 13.7568 107.096 14.3773 107.446 14.8945C107.795 15.4116 108.389 15.9158 109.23 16.4071L111.615 17.8228C112.352 18.2494 112.882 18.6631 113.205 19.0639C113.541 19.4517 113.709 19.9172 113.709 20.4602C113.709 21.0807 113.47 21.5655 112.992 21.9146C112.513 22.2507 111.919 22.4188 111.208 22.4188C110.096 22.4188 109.223 22.1279 108.59 21.5461C107.956 20.9644 107.536 20.0271 107.329 18.7342L106.922 18.4768V20.8674C106.922 21.3328 107.135 21.7465 107.562 22.1085C108.001 22.4576 108.557 22.7291 109.23 22.923Z" fill="#333333"/>
<path fill-rule="evenodd" clip-rule="evenodd" d="M8.81438 10.4776V16.5608C8.50165 16.762 8.16847 16.9112 7.81483 17.0083C7.15548 17.1893 6.55431 17.2798 6.01132 17.2798H3.9557V22.9195H1.99705V12.0826C1.99705 11.4232 1.90655 10.9384 1.72555 10.6281C1.54456 10.3049 1.18256 10.1433 0.63957 10.1433H0.309896L0 9.71448L5.42954 9.69727C6.6847 9.69727 7.81299 9.95738 8.81438 10.4776ZM6.63188 16.2714C6.19232 16.4653 5.75921 16.5622 5.33258 16.5622H3.9557V10.5893C4.43405 10.46 4.89948 10.3954 5.35197 10.3954C5.77861 10.3954 6.21171 10.4988 6.65127 10.7057C7.09084 10.8996 7.4593 11.2293 7.75665 11.6947C8.06693 12.1601 8.22207 12.7548 8.22207 13.4788C8.22207 14.2028 8.06693 14.7975 7.75665 15.2629C7.4593 15.7284 7.08437 16.0645 6.63188 16.2714Z" fill="#333333"/>
</svg>
