<svg width="96" height="23" viewBox="0 0 96 23" fill="none" xmlns="http://www.w3.org/2000/svg">
<path d="M23.1954 7.34627V1.66406H8.87891V22.2149H20.0458" stroke="#B1A99A" stroke-width="1.06541"/>
<path fill-rule="evenodd" clip-rule="evenodd" d="M10.0586 19.0813C10.7714 19.4963 11.5835 19.7039 12.4948 19.7039C13.4741 19.7039 14.3335 19.4643 15.0731 18.9851C15.8232 18.5059 16.4014 17.8496 16.8076 17.0162C17.2139 16.1828 17.417 15.2556 17.417 14.2347C17.417 13.2138 17.2139 12.2867 16.8076 11.4533C16.4014 10.6199 15.8232 9.96362 15.0731 9.48442C14.3335 9.00522 13.4741 8.76562 12.4948 8.76562C11.5835 8.76562 10.7714 8.97315 10.0586 9.3882V10.8246C10.0836 10.7835 10.1091 10.743 10.1353 10.7033C10.7083 9.83861 11.4948 9.40629 12.4948 9.40629C13.4949 9.40629 14.2762 9.83861 14.8387 10.7033C15.4117 11.5575 15.6982 12.7346 15.6982 14.2347C15.6982 15.7348 15.4117 16.9172 14.8387 17.7819C14.2762 18.6361 13.4949 19.0632 12.4948 19.0632C11.4948 19.0632 10.7083 18.6361 10.1353 17.7819C10.1091 17.7416 10.0836 17.7007 10.0586 17.6591V19.0813ZM22.4611 19.657C21.8777 19.657 21.31 19.5789 20.7579 19.4226C20.2161 19.2663 19.7682 19.0476 19.414 18.7663C19.0702 18.4746 18.8984 18.1413 18.8984 17.7662V15.8399L19.2265 16.0474C19.3932 17.0891 19.7317 17.8444 20.2422 18.3131C20.7526 18.7819 21.4558 19.0163 22.3517 19.0163C22.9247 19.0163 23.4039 18.8809 23.7893 18.61C24.1748 18.3288 24.3675 17.9381 24.3675 17.4381C24.3675 17.0006 24.232 16.6255 23.9612 16.313C23.7008 15.9901 23.2736 15.6567 22.6799 15.3129L20.7579 14.1722C20.0807 13.7764 19.6015 13.3701 19.3203 12.9534C19.039 12.5367 18.8984 12.0367 18.8984 11.4533C18.8984 10.6512 19.1848 10.0105 19.7578 9.5313C20.3412 9.04168 21.1068 8.79688 22.0548 8.79688C22.6069 8.79688 23.1434 8.87501 23.6643 9.03127C24.1956 9.17711 24.6279 9.39588 24.9613 9.68756C25.305 9.96883 25.4769 10.297 25.4769 10.672V12.6437L25.1488 12.3909C24.9717 11.3491 24.6383 10.5991 24.1487 10.1407C23.6591 9.67194 22.9768 9.43755 22.1017 9.43755C21.6017 9.43755 21.1745 9.58339 20.8204 9.87507C20.4662 10.1668 20.2891 10.5418 20.2891 11.0002C20.2891 11.4168 20.4193 11.7658 20.6797 12.0471C20.9402 12.3179 21.3777 12.6409 21.9923 13.0159L23.9143 14.1566C24.6227 14.5733 25.1279 14.9744 25.43 15.3598C25.7321 15.7348 25.8832 16.2036 25.8832 16.7662C25.8832 17.6516 25.5759 18.3548 24.9613 18.8757C24.3571 19.3966 23.5237 19.657 22.4611 19.657ZM29.1028 9.71881H30.431V19.3913H31.9936V9.71881H35.447V9.07815H28.1652C27.2797 9.07815 26.837 9.49484 26.837 10.3282V11.9334L27.1808 11.5471L27.249 11.3656C27.8382 9.79669 27.8674 9.71881 29.1028 9.71881ZM37.2136 11.0002C37.2136 10.4689 37.1406 10.0782 36.9948 9.8282C36.849 9.56776 36.5573 9.43755 36.1197 9.43755H35.8541L35.7423 9.07815H42.5733C43.4588 9.07815 43.9015 9.49484 43.9015 10.3282V11.8243L43.5421 11.5471C43.5421 10.3282 42.891 9.71881 41.5889 9.71881H38.7918V13.7503H42.964V14.391H38.7918V18.7507H41.5107C42.1879 18.7507 42.7244 18.6205 43.1202 18.36C43.5265 18.0892 43.8546 17.6412 44.1047 17.0162L44.5292 16.9054L43.9328 18.5319C43.8286 18.8132 43.6828 19.0267 43.4952 19.1726C43.3077 19.3184 43.0473 19.3913 42.7139 19.3913H37.2136V11.0002ZM51.9767 19.0476C52.4038 19.3809 52.8934 19.5476 53.4455 19.5476C53.6434 19.5476 53.8309 19.532 54.008 19.5007C54.1955 19.4695 54.3362 19.433 54.4299 19.3913L54.473 19.0362C54.098 18.9945 53.7111 18.8757 53.3986 18.6257C53.0965 18.3652 52.7527 17.9173 52.3673 17.2818L50.7266 14.5473C51.4558 14.3702 52.0548 14.0837 52.5236 13.6878C52.9923 13.2816 53.2267 12.6826 53.2267 11.8908C53.2267 10.797 52.81 10.0574 51.9767 9.67194C51.1537 9.27608 50.2422 9.07815 49.2421 9.07815H44.9205L45.1168 9.43755H45.3825C45.82 9.43755 46.1117 9.56776 46.2575 9.8282C46.4034 10.0782 46.4763 10.4689 46.4763 11.0002V19.3913H48.0545V14.641H49.0233L50.5859 17.2818C51.086 18.1256 51.5495 18.7142 51.9767 19.0476ZM50.2109 13.8441C49.8463 13.9899 49.4869 14.0629 49.1327 14.0629H48.0545V9.79694C48.4504 9.69277 48.8098 9.64068 49.1327 9.64068C49.4765 9.64068 49.8307 9.71881 50.1953 9.87507C50.5703 10.0313 50.8828 10.2761 51.1328 10.6095C51.3829 10.9429 51.5079 11.3596 51.5079 11.8596C51.5079 12.3596 51.3829 12.7763 51.1328 13.1097C50.8828 13.443 50.5755 13.6878 50.2109 13.8441ZM55.8458 11.0002C55.8458 10.4689 55.7729 10.0782 55.627 9.8282C55.4812 9.56776 55.1895 9.43755 54.752 9.43755H54.4863L54.3676 9.07815H56.0177C56.3927 9.07815 56.6792 9.13023 56.8771 9.23441C57.0751 9.33858 57.2157 9.52609 57.299 9.79694C57.3824 10.0678 57.424 10.4689 57.424 11.0002V13.7503H61.9869V9.07815H63.5495V17.4693C63.5495 18.0006 63.6224 18.3965 63.7682 18.6569C63.9141 18.9069 64.2058 19.0319 64.6433 19.0319H64.9246V19.3913H63.3932C63.0182 19.3913 62.7317 19.3393 62.5338 19.2351C62.3358 19.1309 62.1952 18.9434 62.1119 18.6725C62.0285 18.4017 61.9869 18.0006 61.9869 17.4693V14.391H57.424V19.3913H55.8458V11.0002ZM72.1625 17.4381C72.6833 18.7923 73.6053 19.4695 74.9283 19.4695C75.1783 19.4695 75.3971 19.4434 75.5846 19.3913V19.0476C75.1783 19.0059 74.8502 18.8705 74.6001 18.6413C74.3605 18.4017 74.1209 18.0006 73.8813 17.4381L70.428 9.07815H69.8967L65.4589 19.3913H66.1933L67.459 16.4536H71.7718L72.1625 17.4381ZM69.6311 11.3908L71.4593 15.813H67.709L69.6311 11.3908ZM80.2474 19.5476C78.7889 19.5476 77.7472 19.1726 77.1222 18.4225C76.5075 17.6725 76.2002 16.5057 76.2002 14.9223V11.0002C76.2002 10.4793 76.1273 10.0938 75.9815 9.84382C75.846 9.58339 75.57 9.44796 75.1533 9.43755H74.872L74.7159 9.09232L76.3721 9.07815C76.7471 9.07815 77.0336 9.13023 77.2315 9.23441C77.4295 9.33858 77.5701 9.52609 77.6535 9.79694C77.7368 10.0678 77.7785 10.4689 77.7785 11.0002V15.3911C77.7785 16.537 77.992 17.412 78.4191 18.0163C78.8462 18.61 79.5286 18.9069 80.4661 18.9069C81.6121 18.9069 82.4194 18.5944 82.8882 17.9694C83.3674 17.3443 83.607 16.3286 83.607 14.9223V9.07815H84.2789V14.9223C84.2789 15.9849 84.1591 16.8495 83.9195 17.5162C83.6799 18.1829 83.2632 18.6882 82.6694 19.0319C82.086 19.3757 81.2787 19.5476 80.2474 19.5476ZM88.13 19.4226C88.6821 19.5789 89.2499 19.657 89.8332 19.657C90.8958 19.657 91.7292 19.3966 92.3334 18.8757C92.948 18.3548 93.2553 17.6516 93.2553 16.7662C93.2553 16.2036 93.1043 15.7348 92.8022 15.3598C92.5001 14.9744 91.9948 14.5733 91.2865 14.1566L89.3644 13.0159C88.7498 12.6409 88.3123 12.3179 88.0519 12.0471C87.7914 11.7658 87.6612 11.4168 87.6612 11.0002C87.6612 10.5418 87.8383 10.1668 88.1925 9.87507C88.5467 9.58339 88.9738 9.43755 89.4738 9.43755C90.3489 9.43755 91.0312 9.67194 91.5209 10.1407C92.0105 10.5991 92.3438 11.3491 92.5209 12.3909L92.8491 12.5536V10.672C92.8491 10.297 92.6772 9.96883 92.3334 9.68756C92 9.39588 91.5677 9.17711 91.0364 9.03127C90.5156 8.87501 89.9791 8.79688 89.4269 8.79688C88.479 8.79688 87.7133 9.04168 87.1299 9.5313C86.557 10.0105 86.2705 10.6512 86.2705 11.4533C86.2705 12.0367 86.4111 12.5367 86.6924 12.9534C86.9737 13.3701 87.4529 13.7764 88.13 14.1722L90.052 15.3129C90.6458 15.6567 91.0729 15.9901 91.3333 16.313C91.6042 16.6255 91.7396 17.0006 91.7396 17.4381C91.7396 17.9381 91.5469 18.3288 91.1614 18.61C90.776 18.8809 90.2968 19.0163 89.7238 19.0163C88.8279 19.0163 88.1248 18.7819 87.6143 18.3131C87.1039 17.8444 86.7653 17.0891 86.5986 16.0474L86.2705 15.8399V17.7662C86.2705 18.1413 86.4424 18.4746 86.7861 18.7663C87.1403 19.0476 87.5883 19.2663 88.13 19.4226Z" fill="#333333"/>
<path fill-rule="evenodd" clip-rule="evenodd" d="M7.2158 9.39446V14.296C6.96378 14.4582 6.69527 14.5784 6.41027 14.6567C5.87899 14.8025 5.39458 14.8754 4.95705 14.8754H3.30069V19.4198H1.72246V10.6876C1.72246 10.1563 1.64953 9.76569 1.50369 9.51568C1.35785 9.25524 1.06616 9.12502 0.628631 9.12502H0.362987L0.113281 8.7795L4.48827 8.76562C5.4997 8.76562 6.40887 8.97524 7.2158 9.39446ZM5.45708 14.0629C5.10289 14.2191 4.75391 14.2973 4.41014 14.2973H3.30069V9.48442C3.68613 9.38025 4.06116 9.32816 4.42576 9.32816C4.76954 9.32816 5.11852 9.4115 5.47271 9.57818C5.8269 9.73444 6.1238 10.0001 6.3634 10.3751C6.61341 10.7501 6.73842 11.2293 6.73842 11.8127C6.73842 12.3961 6.61341 12.8753 6.3634 13.2503C6.1238 13.6253 5.82169 13.8962 5.45708 14.0629Z" fill="#333333"/>
</svg>
