<svg width="191" height="44" viewBox="0 0 191 44" fill="none" xmlns="http://www.w3.org/2000/svg">
<path d="M45.9822 12.7336V1.41504H17.4648V42.3507H39.7084" stroke="#B1A99A" stroke-width="2.12222"/>
<path fill-rule="evenodd" clip-rule="evenodd" d="M19.8086 36.1106C21.2285 36.9373 22.8461 37.3506 24.6613 37.3506C26.6119 37.3506 28.3238 36.8734 29.7971 35.9189C31.2912 34.9643 32.4428 33.657 33.2521 31.997C34.0614 30.3369 34.466 28.4901 34.466 26.4566C34.466 24.423 34.0614 22.5762 33.2521 20.9162C32.4428 19.2561 31.2912 17.9488 29.7971 16.9943C28.3238 16.0398 26.6119 15.5625 24.6613 15.5625C22.8461 15.5625 21.2285 15.9759 19.8086 16.8026V19.6637C19.8583 19.5818 19.9092 19.5013 19.9613 19.4221C21.1026 17.6998 22.6693 16.8387 24.6613 16.8387C26.6534 16.8387 28.2097 17.6998 29.3302 19.4221C30.4715 21.1237 31.0422 23.4685 31.0422 26.4566C31.0422 29.4447 30.4715 31.7999 29.3302 33.5222C28.2097 35.2237 26.6534 36.0745 24.6613 36.0745C22.6693 36.0745 21.1026 35.2237 19.9613 33.5222C19.9092 33.442 19.8583 33.3606 19.8086 33.2777V36.1106ZM44.5134 37.2573C43.3513 37.2573 42.2204 37.1016 41.1206 36.7904C40.0416 36.4791 39.1493 36.0434 38.4438 35.4831C37.759 34.9021 37.4166 34.2381 37.4166 33.491V29.654L38.0703 30.0672C38.4023 32.1422 39.0767 33.6467 40.0935 34.5804C41.1103 35.5142 42.5109 35.9811 44.2955 35.9811C45.4368 35.9811 46.3913 35.7113 47.1591 35.1718C47.9268 34.6116 48.3107 33.8334 48.3107 32.8374C48.3107 31.9659 48.041 31.2188 47.5014 30.5963C46.9827 29.9531 46.1319 29.289 44.9491 28.6043L41.1206 26.3321C39.7718 25.5435 38.8173 24.7343 38.257 23.9042C37.6968 23.0742 37.4166 22.0782 37.4166 20.9162C37.4166 19.3184 37.9873 18.0422 39.1286 17.0877C40.2906 16.1124 41.8158 15.6248 43.7041 15.6248C44.8039 15.6248 45.8725 15.7804 46.9101 16.0916C47.9683 16.3821 48.8295 16.8179 49.4935 17.3989C50.1783 17.9592 50.5207 18.6128 50.5207 19.3599V23.2873L49.867 22.7837C49.5143 20.7087 48.8502 19.2146 47.875 18.3016C46.8997 17.3678 45.5405 16.9009 43.7975 16.9009C42.8014 16.9009 41.9507 17.1914 41.2451 17.7724C40.5396 18.3535 40.1869 19.1005 40.1869 20.0135C40.1869 20.8435 40.4462 21.5387 40.965 22.0989C41.4838 22.6385 42.3553 23.2817 43.5796 24.0288L47.4081 26.3009C48.8191 27.131 49.8255 27.9299 50.4273 28.6976C51.0291 29.4447 51.3299 30.3784 51.3299 31.499C51.3299 33.2628 50.7178 34.6634 49.4935 35.701C48.29 36.7385 46.6299 37.2573 44.5134 37.2573ZM57.7431 17.4612H60.3888V36.7281H63.5014V17.4612H70.3802V16.185H55.8755C54.1117 16.185 53.2298 17.015 53.2298 18.6751V21.8725L53.9146 21.1029L54.0505 20.7414C55.2241 17.6163 55.2824 17.4612 57.7431 17.4612ZM73.8992 20.0135C73.8992 18.9552 73.7539 18.1771 73.4634 17.6791C73.1729 17.1603 72.5919 16.9009 71.7203 16.9009H71.1912L70.9686 16.185H84.5753C86.3391 16.185 87.221 17.015 87.221 18.6751V21.6551L86.5051 21.1029C86.5051 18.6751 85.2082 17.4612 82.6144 17.4612H77.0429V25.4917H85.3535V26.7678H77.0429V35.452H82.4588C83.8076 35.452 84.8762 35.1926 85.6648 34.6738C86.474 34.1343 87.1277 33.242 87.6257 31.997L88.4713 31.7762L87.2833 35.0162C87.0758 35.5765 86.7853 36.0019 86.4118 36.2924C86.0383 36.5829 85.5195 36.7281 84.8555 36.7281H73.8992V20.0135ZM103.306 36.0434C104.157 36.7074 105.132 37.0394 106.232 37.0394C106.626 37.0394 107 37.0083 107.352 36.946C107.726 36.8838 108.006 36.8111 108.193 36.7281L108.279 36.0207C107.532 35.9377 106.761 35.701 106.139 35.203C105.537 34.6842 104.852 33.7919 104.084 32.5261L100.816 27.0791C102.269 26.7263 103.462 26.1557 104.396 25.3672C105.329 24.5579 105.796 23.3647 105.796 21.7877C105.796 19.6089 104.966 18.1356 103.306 17.3678C101.667 16.5793 99.8511 16.185 97.8591 16.185H89.2508L89.6418 16.9009H90.171C91.0425 16.9009 91.6235 17.1603 91.914 17.6791C92.2045 18.1771 92.3498 18.9552 92.3498 20.0135V36.7281H95.4935V27.2658H97.4233L100.536 32.5261C101.532 34.2069 102.455 35.3793 103.306 36.0434ZM99.7889 25.6784C99.0626 25.9689 98.3467 26.1142 97.6412 26.1142H95.4935V17.6168C96.282 17.4093 96.9979 17.3056 97.6412 17.3056C98.326 17.3056 99.0315 17.4612 99.7577 17.7724C100.505 18.0837 101.127 18.5713 101.625 19.2354C102.123 19.8994 102.372 20.7294 102.372 21.7254C102.372 22.7215 102.123 23.5515 101.625 24.2155C101.127 24.8795 100.515 25.3672 99.7889 25.6784ZM111.013 20.0135C111.013 18.9552 110.868 18.1771 110.577 17.6791C110.287 17.1603 109.706 16.9009 108.834 16.9009H108.305L108.069 16.185H111.356C112.103 16.185 112.673 16.2888 113.067 16.4963C113.462 16.7038 113.742 17.0773 113.908 17.6168C114.074 18.1563 114.157 18.9552 114.157 20.0135V25.4917H123.246V16.185H126.358V32.8996C126.358 33.9579 126.504 34.7464 126.794 35.2652C127.085 35.7632 127.666 36.0122 128.537 36.0122H129.097V36.7281H126.047C125.3 36.7281 124.729 36.6244 124.335 36.4169C123.941 36.2094 123.661 35.8359 123.495 35.2963C123.329 34.7568 123.246 33.9579 123.246 32.8996V26.7678H114.157V36.7281H111.013V20.0135ZM143.515 32.8374C144.552 35.535 146.389 36.8838 149.024 36.8838C149.522 36.8838 149.958 36.8319 150.331 36.7281V36.0434C149.522 35.9604 148.868 35.6906 148.37 35.2341C147.893 34.7568 147.416 33.9579 146.939 32.8374L140.06 16.185H139.001L130.162 36.7281H131.625L134.146 30.8765H142.737L143.515 32.8374ZM138.472 20.7917L142.114 29.6003H134.644L138.472 20.7917ZM159.619 37.0394C156.714 37.0394 154.639 36.2924 153.394 34.7983C152.17 33.3043 151.558 30.9802 151.558 27.8261V20.0135C151.558 18.976 151.412 18.2082 151.122 17.7102C150.852 17.1914 150.302 16.9217 149.472 16.9009H148.912L148.601 16.2133L151.9 16.185C152.647 16.185 153.218 16.2888 153.612 16.4963C154.006 16.7038 154.286 17.0773 154.452 17.6168C154.618 18.1563 154.701 18.9552 154.701 20.0135V28.7599C154.701 31.0425 155.127 32.7855 155.977 33.989C156.828 35.1718 158.187 35.7632 160.055 35.7632C162.338 35.7632 163.946 35.1407 164.88 33.8957C165.834 32.6506 166.311 30.6274 166.311 27.8261V16.185H167.65V27.8261C167.65 29.9427 167.411 31.665 166.934 32.993C166.457 34.3211 165.627 35.3275 164.444 36.0122C163.282 36.697 161.674 37.0394 159.619 37.0394ZM175.321 36.7904C176.421 37.1016 177.551 37.2573 178.714 37.2573C180.83 37.2573 182.49 36.7385 183.694 35.701C184.918 34.6634 185.53 33.2628 185.53 31.499C185.53 30.3784 185.229 29.4447 184.627 28.6976C184.026 27.9299 183.019 27.131 181.608 26.3009L177.78 24.0288C176.555 23.2817 175.684 22.6385 175.165 22.0989C174.646 21.5387 174.387 20.8435 174.387 20.0135C174.387 19.1005 174.74 18.3535 175.445 17.7724C176.151 17.1914 177.002 16.9009 177.998 16.9009C179.741 16.9009 181.1 17.3678 182.075 18.3016C183.05 19.2146 183.714 20.7087 184.067 22.7837L184.721 23.1078V19.3599C184.721 18.6128 184.378 17.9592 183.694 17.3989C183.03 16.8179 182.169 16.3821 181.11 16.0916C180.073 15.7804 179.004 15.6248 177.904 15.6248C176.016 15.6248 174.491 16.1124 173.329 17.0877C172.187 18.0422 171.617 19.3184 171.617 20.9162C171.617 22.0782 171.897 23.0742 172.457 23.9042C173.017 24.7343 173.972 25.5435 175.321 26.3321L179.149 28.6043C180.332 29.289 181.183 29.9531 181.702 30.5963C182.241 31.2188 182.511 31.9659 182.511 32.8374C182.511 33.8334 182.127 34.6116 181.359 35.1718C180.591 35.7113 179.637 35.9811 178.496 35.9811C176.711 35.9811 175.31 35.5142 174.294 34.5804C173.277 33.6467 172.602 32.1422 172.27 30.0672L171.617 29.654V33.491C171.617 34.2381 171.959 34.9021 172.644 35.4831C173.349 36.0434 174.242 36.4791 175.321 36.7904Z" fill="#333333"/>
<path fill-rule="evenodd" clip-rule="evenodd" d="M14.1475 16.815V26.5788C13.6455 26.9018 13.1107 27.1412 12.5431 27.297C11.4848 27.5875 10.5199 27.7327 9.64842 27.7327H6.34907V36.7847H3.20535V19.391C3.20535 18.3327 3.0601 17.5546 2.76959 17.0565C2.47908 16.5378 1.89806 16.2784 1.02654 16.2784H0.497396L0 15.5901L8.71464 15.5625C10.7292 15.5625 12.5402 15.98 14.1475 16.815ZM10.6444 26.1142C9.93893 26.4254 9.24378 26.5811 8.55901 26.5811H6.34907V16.9943C7.11684 16.7868 7.86387 16.683 8.59014 16.683C9.27491 16.683 9.97005 16.849 10.6756 17.181C11.3811 17.4923 11.9725 18.0214 12.4498 18.7685C12.9478 19.5155 13.1968 20.47 13.1968 21.6321C13.1968 22.7941 12.9478 23.7486 12.4498 24.4956C11.9725 25.2427 11.3707 25.7822 10.6444 26.1142Z" fill="#333333"/>
</svg>
