<svg width="291" height="68" viewBox="0 0 291 68" fill="none" xmlns="http://www.w3.org/2000/svg">
<path d="M70.0573 19.9183V2.67383H26.6094V65.0418H60.4988" stroke="#B1A99A" stroke-width="3.23333"/>
<path fill-rule="evenodd" clip-rule="evenodd" d="M30.1758 55.5354C32.3388 56.7945 34.8029 57.4241 37.5681 57.4241C40.5399 57.4241 43.1481 56.6969 45.3928 55.2426C47.6691 53.7884 49.4237 51.7966 50.6567 49.2674C51.8896 46.7383 52.5061 43.9245 52.5061 40.8263C52.5061 37.728 51.8896 34.9143 50.6567 32.3851C49.4237 29.856 47.6691 27.8642 45.3928 26.4099C43.1481 24.9557 40.5399 24.2285 37.5681 24.2285C34.8029 24.2285 32.3388 24.8581 30.1758 26.1172V30.4752C30.2511 30.351 30.3283 30.2289 30.4074 30.1089C32.1462 27.4848 34.5331 26.1728 37.5681 26.1728C40.6031 26.1728 42.9743 27.4848 44.6815 30.1089C46.4203 32.7013 47.2897 36.2738 47.2897 40.8263C47.2897 45.3788 46.4203 48.9671 44.6815 51.5911C42.9743 54.1836 40.6031 55.4798 37.5681 55.4798C34.5331 55.4798 32.1462 54.1836 30.4074 51.5911C30.3283 51.4697 30.2511 51.3461 30.1758 51.2206V55.5354ZM67.8139 57.2818C66.0434 57.2818 64.3204 57.0447 62.6448 56.5705C61.0009 56.0962 59.6414 55.4323 58.5665 54.5787C57.5232 53.6935 57.0016 52.6818 57.0016 51.5437V45.6978L57.9975 46.3273C58.5033 49.4888 59.5308 51.7808 61.0799 53.2035C62.629 54.6262 64.763 55.3375 67.4819 55.3375C69.2207 55.3375 70.675 54.9265 71.8448 54.1045C73.0145 53.2509 73.5994 52.0654 73.5994 50.5478C73.5994 49.22 73.1884 48.0819 72.3664 47.1334C71.576 46.1534 70.2798 45.1417 68.4778 44.0984L62.6448 40.6366C60.5899 39.4352 59.1356 38.2023 58.282 36.9377C57.4284 35.6731 57.0016 34.1556 57.0016 32.3851C57.0016 29.9508 57.871 28.0065 59.6098 26.5522C61.3802 25.0663 63.7039 24.3234 66.5809 24.3234C68.2565 24.3234 69.8846 24.5605 71.4654 25.0347C73.0777 25.4773 74.3897 26.1412 75.4014 27.0264C76.4447 27.88 76.9664 28.8759 76.9664 30.014V35.9978L75.9705 35.2305C75.433 32.069 74.4214 29.7927 72.9355 28.4017C71.4496 26.979 69.3788 26.2677 66.7232 26.2677C65.2056 26.2677 63.9094 26.7103 62.8345 27.5955C61.7596 28.4807 61.2222 29.6188 61.2222 31.0099C61.2222 32.2745 61.6174 33.3336 62.4077 34.1872C63.1981 35.0092 64.5259 35.9892 66.3912 37.1274L72.2241 40.5892C74.3739 41.8538 75.9073 43.0709 76.8241 44.2407C77.7409 45.3788 78.1993 46.8015 78.1993 48.5087C78.1993 51.196 77.2667 53.33 75.4014 54.9107C73.5678 56.4914 71.0386 57.2818 67.8139 57.2818ZM87.9702 27.1213H92.0011V56.4756H96.7433V27.1213H107.224V25.177H85.1248C82.4376 25.177 81.0939 26.4416 81.0939 28.9707V33.8422L82.1372 32.6697C82.2084 32.4808 82.2769 32.2983 82.3431 32.122L82.3443 32.1189C84.1323 27.3576 84.2211 27.1213 87.9702 27.1213ZM112.585 31.0099C112.585 29.3975 112.364 28.212 111.921 27.4532C111.478 26.6629 110.593 26.2677 109.265 26.2677H108.459L108.12 25.177H128.851C131.538 25.177 132.882 26.4416 132.882 28.9707V33.511L131.791 32.6697C131.791 28.9707 129.815 27.1213 125.863 27.1213H117.375V39.3562H130.036V41.3005H117.375V54.5313H125.626C127.681 54.5313 129.309 54.1361 130.51 53.3458C131.743 52.5238 132.739 51.1643 133.498 49.2674L134.786 48.9311L132.976 53.8674C132.66 54.721 132.218 55.3691 131.649 55.8117C131.08 56.2543 130.289 56.4756 129.278 56.4756H112.585V31.0099ZM157.388 55.4323C158.684 56.444 160.17 56.9498 161.846 56.9498C162.447 56.9498 163.016 56.9024 163.553 56.8076C164.122 56.7127 164.549 56.6021 164.833 56.4756L164.964 55.3978C163.826 55.2713 162.652 54.9107 161.704 54.1519C160.787 53.3616 159.743 52.0021 158.574 50.0736L153.594 41.7747C155.807 41.2373 157.625 40.3679 159.048 39.1665C160.471 37.9335 161.182 36.1157 161.182 33.713C161.182 30.3934 159.917 28.1488 157.388 26.979C154.891 25.7776 152.124 25.177 149.089 25.177H135.974L136.57 26.2677H137.376C138.704 26.2677 139.589 26.6629 140.032 27.4532C140.474 28.212 140.696 29.3975 140.696 31.0099V56.4756H145.485V42.0593H148.425L153.168 50.0736C154.685 52.6344 156.092 54.4207 157.388 55.4323ZM152.029 39.6407C150.923 40.0833 149.832 40.3046 148.757 40.3046H145.485V27.3584C146.687 27.0422 147.777 26.8842 148.757 26.8842C149.801 26.8842 150.875 27.1213 151.982 27.5955C153.12 28.0697 154.069 28.8127 154.827 29.8243C155.586 30.836 155.965 32.1006 155.965 33.6181C155.965 35.1356 155.586 36.4002 154.827 37.4119C154.069 38.4236 153.136 39.1665 152.029 39.6407ZM169.13 31.0099C169.13 29.3975 168.909 28.212 168.466 27.4532C168.024 26.6629 167.139 26.2677 165.811 26.2677H165.005L164.644 25.177H169.652C170.79 25.177 171.66 25.335 172.26 25.6512C172.861 25.9673 173.288 26.5364 173.541 27.3584C173.794 28.1804 173.92 29.3975 173.92 31.0099V39.3562H187.767V25.177H192.509V50.6427C192.509 52.255 192.731 53.4564 193.173 54.2468C193.616 55.0055 194.501 55.3849 195.829 55.3849H196.683V56.4756H192.035C190.897 56.4756 190.028 56.3176 189.427 56.0014C188.826 55.6853 188.4 55.1162 188.147 54.2942C187.894 53.4722 187.767 52.255 187.767 50.6427V41.3005H173.92V56.4756H169.13V31.0099ZM218.648 50.5478C220.229 54.6578 223.027 56.7127 227.042 56.7127C227.801 56.7127 228.465 56.6337 229.034 56.4756V55.4323C227.801 55.3059 226.805 54.8949 226.046 54.1994C225.319 53.4722 224.592 52.255 223.865 50.5478L213.385 25.177H211.772L198.304 56.4756H200.533L204.374 47.5602H217.463L218.648 50.5478ZM210.966 32.1954L216.514 45.6159H205.133L210.966 32.1954ZM243.185 56.9498C238.758 56.9498 235.597 55.8117 233.7 53.5354C231.835 51.2592 230.902 47.7183 230.902 42.9129V31.0099C230.902 29.4292 230.681 28.2594 230.238 27.5006C229.827 26.7103 228.99 26.2993 227.725 26.2677H226.871L226.397 25.22L231.424 25.177C232.562 25.177 233.431 25.335 234.032 25.6512C234.633 25.9673 235.06 26.5364 235.312 27.3584C235.565 28.1804 235.692 29.3975 235.692 31.0099V44.3355C235.692 47.8132 236.34 50.4688 237.636 52.3025C238.932 54.1045 241.003 55.0055 243.848 55.0055C247.326 55.0055 249.776 54.0571 251.199 52.1602C252.653 50.2633 253.38 47.1809 253.38 42.9129V25.177H255.42V42.9129C255.42 46.1376 255.056 48.7616 254.329 50.785C253.602 52.8083 252.337 54.3416 250.535 55.3849C248.765 56.4282 246.314 56.9498 243.185 56.9498ZM267.107 56.5705C268.782 57.0447 270.505 57.2818 272.276 57.2818C275.501 57.2818 278.03 56.4914 279.863 54.9107C281.729 53.33 282.661 51.196 282.661 48.5087C282.661 46.8015 282.203 45.3788 281.286 44.2407C280.369 43.0709 278.836 41.8538 276.686 40.5892L270.853 37.1274C268.988 35.9892 267.66 35.0092 266.87 34.1872C266.079 33.3336 265.684 32.2745 265.684 31.0099C265.684 29.6188 266.222 28.4807 267.297 27.5955C268.371 26.7103 269.668 26.2677 271.185 26.2677C273.841 26.2677 275.912 26.979 277.397 28.4017C278.883 29.7927 279.895 32.069 280.433 35.2305L281.428 35.7243V30.014C281.428 28.8759 280.907 27.88 279.863 27.0264C278.852 26.1412 277.54 25.4773 275.927 25.0347C274.347 24.5605 272.718 24.3234 271.043 24.3234C268.166 24.3234 265.842 25.0663 264.072 26.5522C262.333 28.0065 261.464 29.9508 261.464 32.3851C261.464 34.1556 261.89 35.6731 262.744 36.9377C263.598 38.2023 265.052 39.4352 267.107 40.6366L272.94 44.0984C274.742 45.1417 276.038 46.1534 276.828 47.1334C277.65 48.0819 278.061 49.22 278.061 50.5478C278.061 52.0654 277.477 53.2509 276.307 54.1045C275.137 54.9265 273.683 55.3375 271.944 55.3375C269.225 55.3375 267.091 54.6262 265.542 53.2035C263.993 51.7808 262.965 49.4888 262.459 46.3273L261.464 45.6978V51.5437C261.464 52.6818 261.985 53.6935 263.029 54.5787C264.103 55.4323 265.463 56.0962 267.107 56.5705Z" fill="#1A1A1A"/>
<path fill-rule="evenodd" clip-rule="evenodd" d="M21.5564 26.1377V41.0113C20.7911 41.504 19.9757 41.8691 19.1102 42.1067C17.4979 42.5493 16.0278 42.7706 14.6999 42.7706H9.67319V56.5618H4.88355V30.0614C4.88355 28.4491 4.66224 27.2635 4.21963 26.5048C3.77703 25.7144 2.89181 25.3192 1.56399 25.3192H0.757812L0 24.2706L13.2773 24.2285C16.3474 24.2285 19.1071 24.8649 21.5564 26.1377ZM16.2175 40.3046C15.1426 40.7789 14.0835 41.016 13.0402 41.016H9.67319V26.4099C10.8429 26.0938 11.9811 25.9357 13.0876 25.9357C14.1309 25.9357 15.19 26.1886 16.2649 26.6945C17.3398 27.1687 18.2408 27.9749 18.9679 29.113C19.7267 30.2511 20.1061 31.7054 20.1061 33.4758C20.1061 35.2463 19.7267 36.7006 18.9679 37.8387C18.2408 38.9768 17.324 39.7988 16.2175 40.3046Z" fill="#1A1A1A"/>
</svg>
