<svg width="146" height="34" viewBox="0 0 146 34" fill="none" xmlns="http://www.w3.org/2000/svg">
<path d="M35.1463 9.73388V1.08203H13.3477V32.3732H30.3506" stroke="#B1A99A" stroke-width="1.62222"/>
<path fill-rule="evenodd" clip-rule="evenodd" d="M15.1406 27.6057C16.2258 28.2374 17.4621 28.5533 18.8495 28.5533C20.3405 28.5533 21.6491 28.1884 22.7752 27.4588C23.9173 26.7292 24.7976 25.7299 25.4162 24.4609C26.0348 23.192 26.3441 21.7803 26.3441 20.2258C26.3441 18.6714 26.0348 17.2597 25.4162 15.9908C24.7976 14.7218 23.9173 13.7225 22.7752 12.9929C21.6491 12.2633 20.3405 11.8984 18.8495 11.8984C17.4621 11.8984 16.2258 12.2143 15.1406 12.846V15.0325C15.1784 14.9702 15.2172 14.9089 15.2568 14.8487C16.1292 13.5322 17.3267 12.8739 18.8495 12.8739C20.3722 12.8739 21.5618 13.5322 22.4184 14.8487C23.2908 16.1494 23.727 17.9418 23.727 20.2258C23.727 22.5099 23.2908 24.3102 22.4184 25.6268C21.5618 26.9274 20.3722 27.5778 18.8495 27.5778C17.3267 27.5778 16.1292 26.9274 15.2568 25.6268C15.2172 25.5658 15.1784 25.5039 15.1406 25.4409V27.6057ZM34.0243 28.4819C33.1361 28.4819 32.2716 28.3629 31.4309 28.125C30.6061 27.8871 29.9241 27.554 29.3848 27.1257C28.8613 26.6816 28.5996 26.174 28.5996 25.603V22.67L29.0992 22.9858C29.353 24.572 29.8685 25.7219 30.6458 26.4357C31.423 27.1495 32.4937 27.5064 33.8578 27.5064C34.7302 27.5064 35.4598 27.3002 36.0467 26.8878C36.6336 26.4595 36.927 25.8647 36.927 25.1033C36.927 24.4371 36.7208 23.8661 36.3084 23.3903C35.9119 22.8985 35.2615 22.391 34.3574 21.8675L31.4309 20.1307C30.3999 19.5279 29.6703 18.9093 29.242 18.2749C28.8137 17.6404 28.5996 16.879 28.5996 15.9908C28.5996 14.7694 29.0358 13.7939 29.9082 13.0643C30.7964 12.3188 31.9623 11.946 33.4057 11.946C34.2464 11.946 35.0633 12.065 35.8563 12.3029C36.6653 12.525 37.3236 12.8581 37.8311 13.3022C38.3546 13.7305 38.6163 14.2301 38.6163 14.8011V17.8033L38.1166 17.4183C37.847 15.8321 37.3394 14.6901 36.5939 13.9922C35.8484 13.2784 34.8095 12.9215 33.4771 12.9215C32.7157 12.9215 32.0654 13.1436 31.5261 13.5877C30.9868 14.0318 30.7171 14.6029 30.7171 15.3008C30.7171 15.9352 30.9154 16.4666 31.312 16.8949C31.7085 17.3073 32.3747 17.799 33.3105 18.37L36.237 20.1069C37.3156 20.7414 38.0849 21.352 38.5449 21.9389C39.0049 22.5099 39.2349 23.2237 39.2349 24.0802C39.2349 25.4285 38.767 26.4992 37.8311 27.2922C36.9111 28.0853 35.6422 28.4819 34.0243 28.4819ZM44.1371 13.3498H46.1595V28.0774H48.5387V13.3498H53.7969V12.3743H42.7095C41.3613 12.3743 40.6872 13.0088 40.6872 14.2777V16.7218L41.2106 16.1335L41.3145 15.8572C42.2116 13.4684 42.2561 13.3498 44.1371 13.3498ZM56.4867 15.3008C56.4867 14.4918 56.3757 13.897 56.1537 13.5163C55.9316 13.1198 55.4875 12.9215 54.8213 12.9215H54.4168L54.2466 12.3743H64.6476C65.9959 12.3743 66.67 13.0088 66.67 14.2777V16.5556L66.1227 16.1335C66.1227 14.2777 65.1314 13.3498 63.1487 13.3498H58.8898V19.4883H65.2424V20.4638H58.8898V27.1019H63.0297C64.0607 27.1019 64.8776 26.9036 65.4804 26.5071C66.099 26.0947 66.5986 25.4126 66.9793 24.4609L67.6256 24.2922L66.7176 26.7688C66.5589 27.1971 66.3369 27.5222 66.0514 27.7443C65.7659 27.9664 65.3693 28.0774 64.8617 28.0774H56.4867V15.3008ZM78.9654 27.554C79.6157 28.0615 80.3612 28.3153 81.2019 28.3153C81.5032 28.3153 81.7887 28.2915 82.0584 28.2439C82.3439 28.1964 82.558 28.1408 82.7008 28.0774L82.7664 27.5366C82.1954 27.4732 81.6063 27.2922 81.1305 26.9116C80.6705 26.515 80.1471 25.833 79.5602 24.8654L77.062 20.7017C78.1723 20.432 79.0843 19.9958 79.7981 19.3931C80.5119 18.7745 80.8688 17.8624 80.8688 16.657C80.8688 14.9915 80.2343 13.8653 78.9654 13.2784C77.7123 12.6757 76.3244 12.3743 74.8017 12.3743H68.2215L68.5204 12.9215H68.9249C69.5911 12.9215 70.0352 13.1198 70.2573 13.5163C70.4793 13.897 70.5904 14.4918 70.5904 15.3008V28.0774H72.9934V20.8445H74.4686L76.8478 24.8654C77.6092 26.1502 78.315 27.0464 78.9654 27.554ZM76.2768 19.631C75.7216 19.8531 75.1744 19.9641 74.6351 19.9641H72.9934V13.4687C73.5962 13.3101 74.1434 13.2308 74.6351 13.2308C75.1585 13.2308 75.6978 13.3498 76.253 13.5877C76.824 13.8256 77.2999 14.1984 77.6806 14.706C78.0612 15.2135 78.2516 15.848 78.2516 16.6094C78.2516 17.3707 78.0612 18.0052 77.6806 18.5128C77.2999 19.0204 76.832 19.3931 76.2768 19.631ZM84.8566 15.3008C84.8566 14.4918 84.7456 13.897 84.5235 13.5163C84.3015 13.1198 83.8573 12.9215 83.1911 12.9215H82.7867L82.6059 12.3743H85.1183C85.6894 12.3743 86.1256 12.4536 86.4269 12.6122C86.7283 12.7708 86.9424 13.0563 87.0693 13.4687C87.1962 13.8812 87.2597 14.4918 87.2597 15.3008V19.4883H94.2071V12.3743H96.5864V25.1509C96.5864 25.9599 96.6974 26.5626 96.9195 26.9591C97.1415 27.3398 97.5857 27.5302 98.2519 27.5302H98.6801V28.0774H96.3484C95.7774 28.0774 95.3412 27.9981 95.0399 27.8395C94.7385 27.6809 94.5243 27.3953 94.3975 26.9829C94.2706 26.5705 94.2071 25.9599 94.2071 25.1509V20.4638H87.2597V28.0774H84.8566V15.3008ZM109.701 25.1033C110.494 27.1653 111.898 28.1964 113.912 28.1964C114.293 28.1964 114.626 28.1567 114.911 28.0774V27.554C114.293 27.4905 113.793 27.2843 113.412 26.9354C113.048 26.5705 112.683 25.9599 112.318 25.1033L107.06 12.3743H106.251L99.4937 28.0774H100.612L102.539 23.6044H109.106L109.701 25.1033ZM105.846 15.8956L108.63 22.6289H102.92L105.846 15.8956ZM122.011 28.3153C119.79 28.3153 118.204 27.7443 117.252 26.6023C116.317 25.4602 115.849 23.6837 115.849 21.2727V15.3008C115.849 14.5077 115.738 13.9208 115.516 13.5401C115.309 13.1436 114.889 12.9374 114.255 12.9215H113.826L113.589 12.3959L116.11 12.3743C116.681 12.3743 117.118 12.4536 117.419 12.6122C117.72 12.7708 117.935 13.0563 118.061 13.4687C118.188 13.8812 118.252 14.4918 118.252 15.3008V21.9865C118.252 23.7313 118.577 25.0637 119.227 25.9837C119.878 26.8878 120.917 27.3398 122.344 27.3398C124.089 27.3398 125.318 26.864 126.032 25.9123C126.762 24.9606 127.126 23.4141 127.126 21.2727V12.3743H128.149V21.2727C128.149 22.8906 127.967 24.2071 127.602 25.2223C127.237 26.2374 126.603 27.0067 125.699 27.5302C124.811 28.0536 123.581 28.3153 122.011 28.3153ZM134.013 28.125C134.854 28.3629 135.718 28.4819 136.607 28.4819C138.225 28.4819 139.493 28.0853 140.413 27.2922C141.349 26.4992 141.817 25.4285 141.817 24.0802C141.817 23.2237 141.587 22.5099 141.127 21.9389C140.667 21.352 139.898 20.7414 138.819 20.1069L135.893 18.37C134.957 17.799 134.291 17.3073 133.894 16.8949C133.498 16.4666 133.299 15.9352 133.299 15.3008C133.299 14.6029 133.569 14.0318 134.108 13.5877C134.648 13.1436 135.298 12.9215 136.059 12.9215C137.392 12.9215 138.431 13.2784 139.176 13.9922C139.922 14.6901 140.429 15.8321 140.699 17.4183L141.199 17.6661V14.8011C141.199 14.2301 140.937 13.7305 140.413 13.3022C139.906 12.8581 139.248 12.525 138.439 12.3029C137.646 12.065 136.829 11.946 135.988 11.946C134.545 11.946 133.379 12.3188 132.491 13.0643C131.618 13.7939 131.182 14.7694 131.182 15.9908C131.182 16.879 131.396 17.6404 131.824 18.2749C132.253 18.9093 132.982 19.5279 134.013 20.1307L136.94 21.8675C137.844 22.391 138.494 22.8985 138.891 23.3903C139.303 23.8661 139.509 24.4371 139.509 25.1033C139.509 25.8647 139.216 26.4595 138.629 26.8878C138.042 27.3002 137.312 27.5064 136.44 27.5064C135.076 27.5064 134.005 27.1495 133.228 26.4357C132.451 25.7219 131.935 24.572 131.682 22.9858L131.182 22.67V25.603C131.182 26.174 131.444 26.6816 131.967 27.1257C132.506 27.554 133.188 27.8871 134.013 28.125Z" fill="#1A1A1A"/>
<path fill-rule="evenodd" clip-rule="evenodd" d="M10.8132 12.8553V20.32C10.4298 20.5665 10.0214 20.7493 9.58794 20.8682C8.77899 21.0903 8.04142 21.2013 7.37523 21.2013H4.85322V28.1207H2.45016V14.8249C2.45016 14.016 2.33913 13.4212 2.11707 13.0405C1.895 12.6439 1.45087 12.4457 0.784682 12.4457H0.380208L0 11.9196L6.66145 11.8984C8.20096 11.8984 9.58488 12.2174 10.8132 12.8553ZM8.13659 19.9641C7.59729 20.2021 7.06593 20.321 6.54249 20.321H4.85322V12.9929C5.4401 12.8343 6.01112 12.755 6.56628 12.755C7.08972 12.755 7.62109 12.8819 8.16039 13.1357C8.69969 13.3736 9.15174 13.7781 9.51656 14.3491C9.89725 14.9201 10.0876 15.6497 10.0876 16.538C10.0876 17.4262 9.89725 18.1559 9.51656 18.7269C9.15174 19.2979 8.69175 19.7103 8.13659 19.9641Z" fill="#1A1A1A"/>
</svg>
